<svg width="26" height="26" viewBox="0 0 26 26" fill="none" xmlns="http://www.w3.org/2000/svg">
<path d="M24.1345 10.6L21.7738 9.89182C21.6951 9.57707 21.5377 9.26231 21.3804 8.94756L22.7968 6.82296C23.0328 6.50821 22.9541 6.11476 22.7181 5.8787L20.2 3.36066C19.964 3.12459 19.5705 3.04591 19.3345 3.20328L17.1312 4.38361C16.8164 4.22624 16.5017 4.06886 16.1869 3.99017L15.7148 1.47213C15.6361 1.23607 15.3213 1 15.0066 1H11.3869C11.0722 1 10.7574 1.23607 10.6787 1.55082L9.97051 3.91148C9.65576 3.99017 9.341 4.14755 9.02625 4.30492L6.98034 2.88853C6.66559 2.65246 6.27214 2.73115 6.03608 2.96722L3.51804 5.48526C3.28197 5.72132 3.20328 6.11476 3.36066 6.42952L4.54099 8.6328C4.4623 8.86887 4.30492 9.18362 4.14755 9.49838L1.62951 9.97051C1.31475 10.0492 1 10.364 1 10.6787V14.2984C1 14.6131 1.23607 14.9279 1.55082 15.0066L3.91148 15.7148C3.99017 16.0295 4.14755 16.3443 4.30492 16.659L2.88853 18.7836C2.65246 19.0984 2.73115 19.4918 2.96722 19.7279L5.64263 22.2459C5.80001 22.4033 5.95739 22.482 6.19345 22.482C6.35083 22.482 6.42952 22.482 6.5869 22.4033L8.79018 21.223C9.10493 21.3804 9.41969 21.5377 9.73444 21.6164L10.2066 24.1345C10.2853 24.4492 10.6 24.764 10.9148 24.764H14.5345C14.8492 24.764 15.164 24.5279 15.2427 24.2132L15.9509 21.8525C16.2656 21.7738 16.5804 21.6164 16.8951 21.4591L19.0197 22.8755C19.1771 22.9541 19.2558 23.0328 19.4132 23.0328C19.5705 23.0328 19.8066 22.9541 19.964 22.7968L22.482 20.2787C22.7181 20.0427 22.7968 19.6492 22.6394 19.4132L21.4591 17.2099C21.6164 16.8951 21.7738 16.5804 21.8525 16.2656L24.3705 15.7935C24.6853 15.7148 25 15.4 25 15.0853V11.4656C24.6853 10.9935 24.4492 10.6787 24.1345 10.6ZM23.1902 14.2984L22.0099 14.5345L20.9869 14.6918C20.9082 14.6918 20.8295 14.7705 20.7509 14.7705C20.5148 15.6361 20.2 16.423 19.6492 17.2099C19.6492 17.2886 19.7279 17.3672 19.7279 17.4459L20.2787 18.4689L20.8295 19.4132L19.0984 21.1443L18.1541 20.5148L17.2099 19.8853C17.1312 19.8066 17.0525 19.8066 16.9738 19.8066C16.1869 20.2787 15.4 20.5935 14.5345 20.7509C14.4558 20.8295 14.4558 20.9082 14.4558 20.9869L14.141 22.0886L13.8263 23.1902H11.3869L11.1508 22.0099L10.9148 20.9082C10.9148 20.8295 10.8361 20.7509 10.8361 20.6722C9.97051 20.4361 9.18362 20.0427 8.39674 19.5705C8.31805 19.5705 8.23936 19.6492 8.16067 19.6492L7.13772 20.2L6.19345 20.7509L4.4623 19.0197L5.09181 18.0754L5.72132 17.1312C5.80001 17.0525 5.80001 16.9738 5.80001 16.8951C5.32788 16.1082 5.01312 15.3213 4.85575 14.4558C4.93443 14.3771 4.85575 14.3771 4.77706 14.3771L3.67542 14.0623L2.57377 13.7476V11.3082L3.7541 11.0722L4.85575 10.8361C4.93443 10.8361 5.01312 10.7574 5.09181 10.7574C5.32788 9.89182 5.64263 9.10493 6.19345 8.31805C6.19345 8.23936 6.11476 8.16067 6.11476 8.08198L5.48526 7.13772L4.93443 6.19345L6.66559 4.4623L7.60985 5.09181L8.55411 5.72132C8.6328 5.80001 8.71149 5.80001 8.79018 5.80001C9.57707 5.32788 10.364 5.01312 11.2295 4.85575C11.3082 4.77706 11.3082 4.69837 11.3082 4.61968L11.623 3.51804L11.9377 2.4164H14.3771L14.6131 3.59673L14.8492 4.69837C14.8492 4.77706 14.9279 4.85575 14.9279 4.93443C15.7935 5.1705 16.5804 5.48526 17.3672 6.03608C17.4459 6.03608 17.5246 5.95739 17.6033 5.95739L18.6263 5.40657L19.5705 4.85575L21.3017 6.5869L20.6722 7.53116L20.0427 8.47543C19.964 8.55411 19.964 8.6328 19.964 8.71149C20.4361 9.49838 20.7509 10.2853 20.9082 11.1508C20.9082 11.2295 20.9869 11.2295 20.9869 11.2295L22.0886 11.5443L23.1902 11.859V14.2984Z" fill="black" stroke="black" stroke-width="0.5"/>
<path d="M12.882 7.68848C10.0492 7.68848 7.76727 9.97045 7.76727 12.8032C7.76727 15.636 10.0492 17.918 12.882 17.918C15.7148 17.918 17.9968 15.636 17.9968 12.8032C18.0755 9.97045 15.7148 7.68848 12.882 7.68848ZM12.882 16.5016C10.8361 16.5016 9.18367 14.8491 9.18367 12.8032C9.18367 10.7573 10.8361 9.10487 12.882 9.10487C14.9279 9.10487 16.5804 10.7573 16.5804 12.8032C16.5804 14.8491 14.9279 16.5016 12.882 16.5016Z" fill="black" stroke="black" stroke-width="0.5"/>
</svg>
