<svg width="42" height="42" viewBox="0 0 42 42" fill="none" xmlns="http://www.w3.org/2000/svg">
<path fill-rule="evenodd" clip-rule="evenodd" d="M18.9341 0.0920691C15.3587 0.480061 12.2976 1.54716 9.49854 3.38112C4.58436 6.60085 1.23025 11.7899 0.213485 17.7457C-0.0283286 19.1622 -0.0731406 22.0278 0.122421 23.5653C0.73559 28.3854 2.92285 32.7371 6.42127 36.0975C9.50996 39.0642 13.1522 40.9295 17.4734 41.7579C18.6071 41.9752 18.9741 42 21.0599 42C23.1336 42 23.5243 41.974 24.6943 41.7578C26.102 41.4976 26.4519 41.3675 26.6798 41.0193C27.0521 40.451 27.0428 40.414 25.5007 36.3674C24.5229 33.8012 23.9617 32.4549 23.7953 32.2761C23.4836 31.941 23.1107 31.8424 22.4907 31.931C22.2235 31.9692 21.5514 32.0035 20.9972 32.0072C13.4364 32.0569 8.05159 24.6399 10.4494 17.4787C12.1956 12.2635 17.443 9.14483 22.8951 10.0819C23.7028 10.2208 23.7975 10.2201 24.1059 10.0737C24.5162 9.87886 24.5818 9.77775 25.1953 8.39515C25.4646 7.78787 26.1638 6.21641 26.7487 4.90313C27.3337 3.58976 27.8379 2.41359 27.8691 2.28925C27.9571 1.93813 27.574 1.24049 27.194 1.06008C26.6975 0.824367 24.618 0.349866 23.3962 0.193556C21.679 -0.026028 20.3094 -0.0572324 18.9341 0.0920691ZM30.545 3.09356C30.3867 3.19351 30.2092 3.33628 30.1504 3.41088C29.9572 3.65668 26.9283 10.5461 26.8784 10.8535C26.8094 11.2792 27.0664 11.7445 27.5877 12.1379C28.4349 12.7771 28.9925 13.3391 29.7376 14.3049C30.6338 15.4665 30.6766 15.5048 31.141 15.5631C31.4377 15.6003 32.0165 15.4119 34.2874 14.539C35.8179 13.9506 37.5345 13.2945 38.1019 13.0809C39.9193 12.3969 40.1131 11.8833 39.15 10.3029C37.5991 7.75762 35.4027 5.50591 32.726 3.71707C31.502 2.89903 31.0554 2.77143 30.545 3.09356ZM36.1178 16.4644C34.0634 17.2546 32.3078 17.969 32.2162 18.0518C31.8702 18.3651 31.8164 18.6933 31.9147 19.8877C32.2416 23.8566 30.6598 27.4816 27.5941 29.7889C26.4051 30.6837 26.3325 30.7725 26.3405 31.3224C26.3471 31.7653 26.459 32.0749 28.7332 37.9417C29.3003 39.4045 29.476 39.6394 30.0887 39.7544C30.503 39.8322 31.0358 39.5894 32.3971 38.7026C36.6829 35.9107 39.8213 31.6048 41.2348 26.5774C41.7361 24.7942 41.9274 23.4991 41.9849 21.4995C42.0405 19.568 41.9478 18.3584 41.6224 16.7714C41.4138 15.7537 41.2581 15.4022 40.9167 15.1783C40.4228 14.8546 40.0264 14.9608 36.1178 16.4644Z" fill="#02B69C"/>
</svg>
