<svg width="80" height="80" viewBox="0 0 80 80" fill="none" xmlns="http://www.w3.org/2000/svg">
<path d="M71.6838 25.5895C71.6838 26.1865 71.5338 26.8045 71.2248 27.3595L60.9568 45.6985L51.0308 48.4915L64.8598 23.7975C65.0925 23.3792 65.4057 23.0109 65.7813 22.7141C66.1569 22.4172 66.5875 22.1976 67.0483 22.0678C67.5091 21.9381 67.9911 21.9008 68.4664 21.958C68.9417 22.0153 69.401 22.166 69.8178 22.4015C70.3843 22.7189 70.8558 23.1817 71.1839 23.7421C71.5119 24.3025 71.6844 24.9402 71.6838 25.5895V25.5895ZM15.9088 23.7975L29.7488 48.4915L19.8218 45.6995L9.55479 27.3585C9.31986 26.9415 9.16962 26.4822 9.1127 26.007C9.05578 25.5318 9.0933 25.05 9.22311 24.5893C9.35292 24.1286 9.57246 23.6981 9.86911 23.3225C10.1658 22.9469 10.5337 22.6336 10.9518 22.4005C11.3686 22.1652 11.8279 22.0147 12.3031 21.9576C12.7784 21.9005 13.2602 21.9379 13.7209 22.0677C14.1817 22.1976 14.6121 22.4173 14.9876 22.7141C15.3631 23.011 15.6762 23.3792 15.9088 23.7975V23.7975Z" fill="#8DD1FE"/>
<path d="M68.6979 45.1094L67.5479 49.0774L62.0449 67.9664C61.7087 69.1304 61.003 70.1535 60.0343 70.8812C59.0656 71.6089 57.8865 72.0017 56.6749 72.0004H22.4949C21.2833 72.0017 20.1041 71.6089 19.1354 70.8812C18.1667 70.1535 17.461 69.1304 17.1249 67.9664L11.6349 49.0774L10.4849 45.1094H68.6979V45.1094Z" fill="#8DD1FE"/>
<path d="M71.172 39.5693V43.3633C71.172 43.8275 70.9876 44.2726 70.6594 44.6008C70.3312 44.929 69.8861 45.1133 69.422 45.1133H9.75C9.28587 45.1133 8.84075 44.929 8.51256 44.6008C8.18437 44.2726 8 43.8275 8 43.3633V39.5693C8 38.6023 8.784 37.8193 9.75 37.8193H69.422C70.388 37.8193 71.172 38.6023 71.172 39.5693ZM28.635 51.2333V62.5703C28.635 62.9296 28.5642 63.2854 28.4267 63.6174C28.2892 63.9493 28.0877 64.2509 27.8336 64.505C27.5796 64.759 27.278 64.9606 26.946 65.0981C26.6141 65.2356 26.2583 65.3063 25.899 65.3063C25.5397 65.3063 25.1839 65.2356 24.852 65.0981C24.52 64.9606 24.2184 64.759 23.9644 64.505C23.7103 64.2509 23.5088 63.9493 23.3713 63.6174C23.2338 63.2854 23.163 62.9296 23.163 62.5703V51.2333C23.163 50.874 23.2338 50.5183 23.3713 50.1863C23.5088 49.8544 23.7103 49.5528 23.9644 49.2987C24.2184 49.0446 24.52 48.8431 24.852 48.7056C25.1839 48.5681 25.5397 48.4973 25.899 48.4973C26.2583 48.4973 26.6141 48.5681 26.946 48.7056C27.278 48.8431 27.5796 49.0446 27.8336 49.2987C28.0877 49.5528 28.2892 49.8544 28.4267 50.1863C28.5642 50.5183 28.635 50.874 28.635 51.2333V51.2333ZM42.322 51.2333V62.5703C42.322 63.296 42.0337 63.9919 41.5206 64.505C41.0075 65.0181 40.3116 65.3063 39.586 65.3063C38.8604 65.3063 38.1645 65.0181 37.6514 64.505C37.1383 63.9919 36.85 63.296 36.85 62.5703V51.2333C36.85 50.5077 37.1383 49.8118 37.6514 49.2987C38.1645 48.7856 38.8604 48.4973 39.586 48.4973C40.3116 48.4973 41.0075 48.7856 41.5206 49.2987C42.0337 49.8118 42.322 50.5077 42.322 51.2333V51.2333ZM56.009 51.2333V62.5703C56.009 63.296 55.7207 63.9919 55.2076 64.505C54.6945 65.0181 53.9986 65.3063 53.273 65.3063C52.5474 65.3063 51.8515 65.0181 51.3384 64.505C50.8253 63.9919 50.537 63.296 50.537 62.5703V51.2333C50.537 50.5077 50.8253 49.8118 51.3384 49.2987C51.8515 48.7856 52.5474 48.4973 53.273 48.4973C53.9986 48.4973 54.6945 48.7856 55.2076 49.2987C55.7207 49.8118 56.009 50.5077 56.009 51.2333V51.2333Z" fill="#8CC2FE"/>
<path d="M52.7848 21.208C52.7848 28.493 46.8748 34.403 39.5888 34.403C32.2918 34.403 26.3818 28.493 26.3818 21.208C26.3818 13.91 32.2918 8 39.5888 8C46.8738 8 52.7848 13.91 52.7848 21.208Z" fill="#F14F4A"/>
<path d="M43.6449 26.4603C43.2609 26.4603 42.8769 26.3133 42.5849 26.0203L34.4609 17.8973C34.3176 17.7589 34.2033 17.5934 34.1247 17.4104C34.0461 17.2274 34.0047 17.0306 34.003 16.8314C34.0013 16.6322 34.0392 16.4347 34.1146 16.2504C34.1901 16.066 34.3014 15.8985 34.4423 15.7577C34.5831 15.6169 34.7506 15.5055 34.9349 15.4301C35.1193 15.3546 35.3168 15.3167 35.516 15.3184C35.7151 15.3201 35.912 15.3615 36.095 15.4401C36.278 15.5188 36.4435 15.633 36.5819 15.7763L44.7049 23.8993C44.9144 24.1091 45.057 24.3762 45.1148 24.667C45.1726 24.9578 45.1429 25.2592 45.0294 25.5331C44.916 25.8071 44.724 26.0412 44.4775 26.2061C44.2311 26.3709 43.9413 26.459 43.6449 26.4593V26.4603Z" fill="#E9EDF4"/>
<path d="M35.5221 26.4603C35.2256 26.46 34.9359 26.3719 34.6895 26.2071C34.443 26.0422 34.251 25.8081 34.1375 25.5341C34.0241 25.2602 33.9944 24.9588 34.0522 24.668C34.11 24.3772 34.2526 24.1101 34.4621 23.9003L42.5841 15.7763C42.7225 15.633 42.888 15.5188 43.071 15.4401C43.254 15.3615 43.4508 15.3201 43.65 15.3184C43.8492 15.3167 44.0467 15.3546 44.2311 15.4301C44.4154 15.5055 44.5829 15.6169 44.7237 15.7577C44.8646 15.8985 44.9759 16.066 45.0514 16.2504C45.1268 16.4347 45.1647 16.6322 45.163 16.8314C45.1613 17.0306 45.1199 17.2274 45.0413 17.4104C44.9627 17.5934 44.8484 17.7589 44.7051 17.8973L36.5821 26.0203C36.2891 26.3133 35.9061 26.4603 35.5221 26.4603Z" fill="#E9EDF4"/>
</svg>
