<svg width="80" height="80" viewBox="0 0 80 80" fill="none" xmlns="http://www.w3.org/2000/svg">
<path d="M61.7812 19.0605H17.3438C14.6168 19.0605 12.4062 21.2711 12.4062 23.998V56.0918C12.4062 58.8187 14.6168 61.0293 17.3438 61.0293H61.7812C64.5082 61.0293 66.7188 58.8187 66.7188 56.0918V23.998C66.7188 21.2711 64.5082 19.0605 61.7812 19.0605Z" fill="#46D6A3"/>
<path d="M58.2154 24.6719H20.9098C20.2848 24.6786 19.6881 24.9333 19.2508 25.38C18.8136 25.8266 18.5717 26.4287 18.5783 27.0537V53.0373C18.5717 53.6623 18.8136 54.2644 19.2508 54.711C19.6881 55.1577 20.2848 55.4124 20.9098 55.4191H58.2154C58.8404 55.4124 59.4372 55.1577 59.8745 54.711C60.3117 54.2643 60.5536 53.6622 60.547 53.0372V27.0536C60.5536 26.4286 60.3116 25.8266 59.8744 25.3799C59.4371 24.9333 58.8404 24.6786 58.2154 24.6719Z" fill="#02B69C"/>
<path d="M40.6847 49.0219H35.0739C34.4787 49.0219 33.9078 48.7855 33.4869 48.3646C33.066 47.9437 32.8296 47.3728 32.8296 46.7776C32.8296 46.1824 33.066 45.6115 33.4869 45.1906C33.9078 44.7697 34.4787 44.5333 35.0739 44.5333H40.6847C40.9814 44.5319 41.2655 44.413 41.4748 44.2028C41.6841 43.9925 41.8016 43.7078 41.8016 43.4111C41.8016 43.1144 41.6841 42.8298 41.4748 42.6195C41.2655 42.4092 40.9814 42.2904 40.6847 42.289H38.4404C36.9543 42.2858 35.5302 41.6933 34.4805 40.6414C33.4309 39.5896 32.8413 38.1642 32.8413 36.6782C32.8413 35.1921 33.4309 33.7668 34.4805 32.7149C35.5302 31.663 36.9543 31.0705 38.4404 31.0674H44.0512C44.6464 31.0674 45.2173 31.3038 45.6381 31.7247C46.059 32.1456 46.2955 32.7165 46.2955 33.3117C46.2955 33.9069 46.059 34.4778 45.6381 34.8987C45.2173 35.3196 44.6464 35.556 44.0512 35.556H38.4404C38.1437 35.5574 37.8596 35.6762 37.6503 35.8865C37.441 36.0968 37.3235 36.3815 37.3235 36.6782C37.3235 36.9749 37.441 37.2595 37.6503 37.4698C37.8596 37.6801 38.1437 37.7989 38.4404 37.8003H40.6847C42.1707 37.8034 43.5949 38.396 44.6445 39.4478C45.6942 40.4997 46.2837 41.9251 46.2837 43.4111C46.2837 44.8972 45.6942 46.3225 44.6445 47.3744C43.5949 48.4263 42.1707 49.0188 40.6847 49.0219V49.0219Z" fill="#46D6A3"/>
<path d="M39.5622 35.5563C38.967 35.5563 38.3961 35.3198 37.9753 34.8989C37.5544 34.478 37.3179 33.9072 37.3179 33.312V29.9455C37.3179 29.3503 37.5543 28.7794 37.9752 28.3585C38.3961 27.9376 38.967 27.7012 39.5622 27.7012C40.1574 27.7012 40.7283 27.9376 41.1492 28.3585C41.5701 28.7794 41.8065 29.3503 41.8065 29.9455V33.312C41.8065 33.9072 41.57 34.478 41.1491 34.8989C40.7282 35.3198 40.1574 35.5563 39.5622 35.5563V35.5563ZM39.5622 52.3887C38.967 52.3886 38.3961 52.1522 37.9753 51.7313C37.5544 51.3104 37.3179 50.7396 37.3179 50.1444V46.7779C37.3179 46.1826 37.5543 45.6118 37.9752 45.1909C38.3961 44.77 38.967 44.5336 39.5622 44.5336C40.1574 44.5336 40.7283 44.77 41.1492 45.1909C41.5701 45.6118 41.8065 46.1826 41.8065 46.7779V50.1444C41.8065 50.7396 41.57 51.3104 41.1491 51.7313C40.7282 52.1522 40.1574 52.3886 39.5622 52.3887V52.3887Z" fill="#46D6A3"/>
<path d="M27.2188 42.5137C28.5822 42.5137 29.6875 41.4084 29.6875 40.0449C29.6875 38.6815 28.5822 37.5762 27.2188 37.5762C25.8553 37.5762 24.75 38.6815 24.75 40.0449C24.75 41.4084 25.8553 42.5137 27.2188 42.5137Z" fill="#46D6A3"/>
<path d="M51.9062 42.5137C53.2697 42.5137 54.375 41.4084 54.375 40.0449C54.375 38.6815 53.2697 37.5762 51.9062 37.5762C50.5428 37.5762 49.4375 38.6815 49.4375 40.0449C49.4375 41.4084 50.5428 42.5137 51.9062 42.5137Z" fill="#46D6A3"/>
<path d="M7.46737 25.2334C7.0619 25.2328 6.66281 25.1324 6.30529 24.9412C5.94778 24.7499 5.64283 24.4736 5.41734 24.1366C5.19185 23.7996 5.05275 23.4123 5.01232 23.0088C4.97188 22.6054 5.03135 22.1982 5.18548 21.8232C6.9376 17.5682 9.74298 13.8286 13.3379 10.9561C16.0573 8.80356 19.1585 7.18361 22.4788 6.18132C23.1054 5.99141 23.7818 6.05821 24.3592 6.36702C24.9365 6.67582 25.3676 7.20134 25.5575 7.82796C25.7474 8.45458 25.6806 9.13098 25.3718 9.70835C25.063 10.2857 24.5375 10.7168 23.9108 10.9067C21.185 11.7293 18.6388 13.0589 16.4058 14.8256C13.4708 17.1728 11.181 20.2279 9.75168 23.7037C9.56525 24.1562 9.24861 24.5432 8.84192 24.8156C8.43523 25.0879 7.95682 25.2333 7.46737 25.2334Z" fill="#477898"/>
<path d="M21.8715 17.8262C21.496 17.8268 21.1254 17.7416 20.7878 17.5773C20.4502 17.413 20.1545 17.1738 19.9233 16.8779C19.6921 16.5821 19.5315 16.2374 19.4536 15.8701C19.3757 15.5028 19.3826 15.1226 19.4739 14.7584L20.6986 9.86427L17.2064 7.53648C16.9331 7.35822 16.6979 7.12755 16.5143 6.85782C16.3307 6.58808 16.2024 6.28463 16.1368 5.96501C16.0712 5.64538 16.0697 5.31593 16.1322 4.99569C16.1947 4.67545 16.3201 4.37078 16.5011 4.0993C16.6821 3.82782 16.9151 3.59491 17.1866 3.41404C17.4582 3.23316 17.7629 3.10792 18.0832 3.04554C18.4035 2.98316 18.7329 2.98488 19.0525 3.05061C19.3721 3.11634 19.6755 3.24478 19.9452 3.42848L24.8851 6.72054C25.3088 7.00301 25.6348 7.40959 25.8185 7.88457C26.0021 8.35954 26.0344 8.87968 25.9109 9.37373L24.2643 15.9567C24.1305 16.4902 23.8225 16.9639 23.3891 17.3025C22.9556 17.6412 22.4215 17.8255 21.8715 17.8262V17.8262ZM55.9289 74.0156C55.3369 74.0151 54.7648 73.802 54.3168 73.415C53.8688 73.0281 53.5747 72.4931 53.488 71.9074C53.4014 71.3218 53.528 70.7246 53.8448 70.2245C54.1616 69.7245 54.6476 69.3548 55.214 69.183C57.9399 68.3603 60.4861 67.0308 62.719 65.2641C65.654 62.9169 67.9438 59.8617 69.3731 56.386C69.6225 55.7805 70.1022 55.2988 70.7067 55.047C71.3112 54.7951 71.9909 54.7938 72.5965 55.0431C73.202 55.2925 73.6836 55.7722 73.9355 56.3767C74.1873 56.9812 74.1887 57.661 73.9393 58.2665C72.1872 62.5215 69.3818 66.261 65.7869 69.1335C63.0675 71.2861 59.9663 72.906 56.646 73.9083C56.4135 73.9792 56.1719 74.0153 55.9289 74.0156V74.0156Z" fill="#477898"/>
<path d="M60.5466 77.0762C60.0599 77.0765 59.5841 76.9321 59.1796 76.6614L54.2396 73.3694C53.8159 73.0869 53.4899 72.6803 53.3063 72.2053C53.1226 71.7304 53.0903 71.2102 53.2138 70.7162L54.8605 64.1332C55.021 63.4997 55.4261 62.9557 55.9871 62.6204C56.548 62.2851 57.219 62.1858 57.853 62.3444C58.487 62.503 59.0322 62.9065 59.3693 63.4664C59.7063 64.0263 59.8076 64.697 59.6509 65.3315L58.4262 70.2256L61.9183 72.5533C62.3594 72.8473 62.6941 73.2755 62.8729 73.7744C63.0518 74.2734 63.0653 74.8167 62.9115 75.324C62.7576 75.8312 62.4446 76.2755 62.0187 76.591C61.5928 76.9066 61.0766 77.0767 60.5466 77.0762Z" fill="#477898"/>
</svg>
