<svg width="80" height="80" viewBox="0 0 80 80" fill="none" xmlns="http://www.w3.org/2000/svg">
<path d="M37.25 58.25H66.125C66.8212 58.25 67.4889 57.9734 67.9812 57.4812C68.4734 56.9889 68.75 56.3212 68.75 55.625V13.625C68.75 12.9288 68.4734 12.2611 67.9812 11.7688C67.4889 11.2766 66.8212 11 66.125 11H37.25C36.5538 11 35.8861 11.2766 35.3938 11.7688C34.9016 12.2611 34.625 12.9288 34.625 13.625V55.625C34.625 56.3212 34.9016 56.9889 35.3938 57.4812C35.8861 57.9734 36.5538 58.25 37.25 58.25Z" fill="#0097CF"/>
<path opacity="0.1" d="M37.25 57.5938H66.125C66.8212 57.5938 67.4889 57.3172 67.9812 56.8249C68.4734 56.3326 68.75 55.6649 68.75 54.9688V55.625C68.75 56.3212 68.4734 56.9889 67.9812 57.4812C67.4889 57.9734 66.8212 58.25 66.125 58.25H37.25C36.5538 58.25 35.8861 57.9734 35.3938 57.4812C34.9016 56.9889 34.625 56.3212 34.625 55.625V54.9688C34.625 55.6649 34.9016 56.3326 35.3938 56.8249C35.8861 57.3172 36.5538 57.5938 37.25 57.5938Z" fill="black"/>
<path opacity="0.2" d="M37.25 11H66.125C66.8212 11 67.4889 11.2766 67.9812 11.7688C68.4734 12.2611 68.75 12.9288 68.75 13.625V14.2812C68.75 13.5851 68.4734 12.9174 67.9812 12.4251C67.4889 11.9328 66.8212 11.6562 66.125 11.6562H37.25C36.5538 11.6562 35.8861 11.9328 35.3938 12.4251C34.9016 12.9174 34.625 13.5851 34.625 14.2812V13.625C34.625 12.9288 34.9016 12.2611 35.3938 11.7688C35.8861 11.2766 36.5538 11 37.25 11V11Z" fill="white"/>
<path d="M53 11H60.875V58.25H53V11Z" fill="#303C42"/>
<path d="M49.7581 27.7081C48.9129 26.8603 47.8025 26.5426 46.5477 26.8051C43.214 27.4824 40.2425 32.2231 39.2739 34.625C38.0664 37.6175 35.6986 41.9855 33.7509 43.3741C33.386 42.9148 32.8768 41.1534 32.6379 40.61C32.4909 40.2766 32.3544 39.9643 32.1969 39.6808C32.5644 38.72 32.9319 37.4731 33.1288 36.7775L34.625 35.8351V24.7314C30.6298 25.4401 24.9387 26.708 23.1957 28.4458C21.1876 30.4565 19.3737 36.5176 17.3814 43.6445C16.964 45.1329 16.6018 46.4323 16.3104 47.3563C15.0871 51.2308 11.4935 56.0791 11.4541 56.129L11 56.7144L11.2651 57.4074C11.3097 57.5203 15.5728 68.75 28.0625 68.75H28.8185L29.1991 68.0964C31.6141 63.9305 34.3809 62.2505 37.0557 60.6283C39.0009 59.4496 40.841 58.334 42.248 56.3968C44.873 52.79 44.9623 50.8318 45.0515 48.9339C45.0699 48.5926 45.083 48.2409 45.1198 47.8734C45.3298 45.6631 46.8207 42.2218 48.8315 39.308C51.341 35.6671 52.9186 30.8686 49.7581 27.7055V27.7081Z" fill="#FFD573"/>
<path opacity="0.05" d="M53 11H56.9375V58.25H53V11Z" fill="white"/>
<path opacity="0.1" d="M48.8315 38.6518C46.8207 41.5655 45.3298 45.0069 45.1198 47.2171C45.083 47.5846 45.0673 47.9338 45.0515 48.2776C44.9623 50.1729 44.873 52.1338 42.248 55.7405C40.841 57.6778 39.0009 58.7934 37.0557 59.972C34.3782 61.5943 31.6141 63.2743 29.1991 67.4401L28.8185 68.0938H28.0625C15.5728 68.0938 11 56.7144 11 56.7144L11.2651 57.4074C11.3097 57.5203 15.5728 68.75 28.0625 68.75H28.8185L29.1991 68.0964C31.6141 63.9305 34.3809 62.2505 37.0557 60.6283C39.0009 59.4496 40.841 58.334 42.248 56.3968C44.873 52.79 44.9623 50.8318 45.0515 48.9339C45.0699 48.5926 45.083 48.2409 45.1198 47.8734C45.3298 45.6631 46.8207 42.2218 48.8315 39.308C50.4406 36.9718 51.6507 34.163 51.488 31.6115C51.4276 33.9819 50.3067 36.515 48.8315 38.6518V38.6518Z" fill="black"/>
<path d="M49.7581 27.7081C52.9186 30.8686 51.341 35.6671 48.8315 39.308C46.8208 42.2218 45.3298 45.6631 45.1198 47.8734C45.083 48.2409 45.0673 48.59 45.0515 48.9339C44.9623 50.8291 44.873 52.79 42.248 56.3968C41.723 57.1213 41.1193 57.7093 40.4893 58.25H66.125C66.8212 58.25 67.4889 57.9734 67.9812 57.4812C68.4734 56.9889 68.75 56.3212 68.75 55.625V46.7L49.7581 27.7081V27.7081Z" fill="url(#paint0_linear_723_5031)"/>
<path opacity="0.2" d="M34.625 24.7314C30.6298 25.4401 24.9387 26.708 23.1957 28.4458C21.1876 30.4565 19.3737 36.5176 17.3814 43.6445C16.964 45.1329 16.6018 46.4323 16.3104 47.3563C15.0871 51.2308 11.4935 56.0791 11.4541 56.129L11 56.7144L11.168 57.1528L11.4568 56.7853C11.4935 56.7354 15.0871 51.887 16.313 48.0125C16.6017 47.0885 16.964 45.7891 17.3814 44.3008C19.3764 37.1739 21.1876 31.1128 23.1957 29.102C24.9387 27.3643 30.6298 26.0964 34.625 25.3876V24.7314Z" fill="white"/>
<path d="M66.125 11H37.25C36.5538 11 35.8861 11.2766 35.3938 11.7688C34.9016 12.2611 34.625 12.9288 34.625 13.625V24.7314C30.6298 25.4401 24.9387 26.708 23.1957 28.4457C21.1876 30.4565 19.3737 36.5176 17.3814 43.6445C16.964 45.1329 16.6018 46.4323 16.3104 47.3563C15.0871 51.2308 11.4935 56.0791 11.4541 56.129L11 56.7144L11.2651 57.4074C11.3097 57.5203 15.5728 68.75 28.0625 68.75H28.8185L29.1991 68.0964C31.6141 63.9305 34.3809 62.2505 37.0557 60.6283C38.2737 59.8933 39.434 59.1556 40.4893 58.25H66.125C66.8212 58.25 67.4889 57.9734 67.9812 57.4812C68.4734 56.9889 68.75 56.3212 68.75 55.625V13.625C68.75 12.9288 68.4734 12.2611 67.9812 11.7688C67.4889 11.2766 66.8212 11 66.125 11ZM33.7509 43.3741C33.386 42.9148 32.8768 41.1534 32.6379 40.61C32.4909 40.2766 32.3544 39.9642 32.1969 39.6807C32.5644 38.72 32.9319 37.4731 33.1288 36.7775L34.625 35.8351V42.5761C34.3284 42.8911 34.0344 43.172 33.7509 43.3741V43.3741Z" fill="url(#paint1_linear_723_5031)"/>
<circle cx="40" cy="51" r="17" fill="white"/>
<path d="M55 51.0074C55 59.2849 48.2849 66 40.0063 66C31.7151 66 25 59.2849 25 51.0074C25 42.7151 31.7151 36 40.0063 36C48.2837 36 55 42.7151 55 51.0074Z" fill="#F14F4A"/>
<path d="M44.6147 57.3503C44.1784 57.3503 43.742 57.1833 43.4103 56.8503L34.1795 47.6207C34.0167 47.4635 33.8869 47.2754 33.7976 47.0675C33.7082 46.8595 33.6612 46.6359 33.6592 46.4096C33.6573 46.1833 33.7004 45.9589 33.7861 45.7494C33.8718 45.5399 33.9983 45.3496 34.1584 45.1896C34.3184 45.0296 34.5087 44.903 34.7182 44.8173C34.9276 44.7317 35.152 44.6885 35.3783 44.6905C35.6046 44.6925 35.8283 44.7395 36.0362 44.8288C36.2442 44.9181 36.4322 45.048 36.5895 45.2107L45.8191 54.4404C46.0571 54.6787 46.2192 54.9823 46.2849 55.3127C46.3505 55.6431 46.3167 55.9856 46.1879 56.2968C46.059 56.6081 45.8408 56.8741 45.5608 57.0614C45.2808 57.2487 44.9515 57.3488 44.6147 57.3491V57.3503Z" fill="#F5F5F7"/>
<path d="M35.3855 57.3503C35.0486 57.35 34.7194 57.2499 34.4394 57.0626C34.1594 56.8753 33.9411 56.6092 33.8123 56.298C33.6834 55.9867 33.6496 55.6443 33.7153 55.3138C33.7809 54.9834 33.943 54.6799 34.1811 54.4415L43.4096 45.2107C43.5668 45.048 43.7548 44.9181 43.9628 44.8288C44.1707 44.7395 44.3944 44.6925 44.6207 44.6905C44.847 44.6885 45.0714 44.7317 45.2809 44.8173C45.4903 44.903 45.6806 45.0296 45.8406 45.1896C46.0007 45.3496 46.1272 45.5399 46.2129 45.7494C46.2986 45.9589 46.3417 46.1833 46.3398 46.4096C46.3378 46.6359 46.2908 46.8595 46.2015 47.0675C46.1121 47.2754 45.9823 47.4635 45.8195 47.6207L36.5899 56.8503C36.257 57.1833 35.8218 57.3503 35.3855 57.3503Z" fill="#F5F5F7"/>
<defs>
<linearGradient id="paint0_linear_723_5031" x1="41.072" y1="38.9274" x2="60.0718" y2="57.9271" gradientUnits="userSpaceOnUse">
<stop stop-color="#3E2723" stop-opacity="0.2"/>
<stop offset="1" stop-color="#3E2723" stop-opacity="0.02"/>
</linearGradient>
<linearGradient id="paint1_linear_723_5031" x1="22.403" y1="29.186" x2="70.8211" y2="51.7663" gradientUnits="userSpaceOnUse">
<stop stop-color="white" stop-opacity="0.2"/>
<stop offset="1" stop-color="white" stop-opacity="0"/>
</linearGradient>
</defs>
</svg>
