<svg width="80" height="80" viewBox="0 0 80 80" fill="none" xmlns="http://www.w3.org/2000/svg">
<path d="M27.25 57.25H56.125C56.8212 57.25 57.4889 56.9734 57.9812 56.4812C58.4734 55.9889 58.75 55.3212 58.75 54.625V12.625C58.75 11.9288 58.4734 11.2611 57.9812 10.7688C57.4889 10.2766 56.8212 10 56.125 10H27.25C26.5538 10 25.8861 10.2766 25.3938 10.7688C24.9016 11.2611 24.625 11.9288 24.625 12.625V54.625C24.625 55.3212 24.9016 55.9889 25.3938 56.4812C25.8861 56.9734 26.5538 57.25 27.25 57.25Z" fill="#0097CF"/>
<path opacity="0.1" d="M27.25 56.5938H56.125C56.8212 56.5938 57.4889 56.3172 57.9812 55.8249C58.4734 55.3326 58.75 54.6649 58.75 53.9688V54.625C58.75 55.3212 58.4734 55.9889 57.9812 56.4812C57.4889 56.9734 56.8212 57.25 56.125 57.25H27.25C26.5538 57.25 25.8861 56.9734 25.3938 56.4812C24.9016 55.9889 24.625 55.3212 24.625 54.625V53.9688C24.625 54.6649 24.9016 55.3326 25.3938 55.8249C25.8861 56.3172 26.5538 56.5938 27.25 56.5938Z" fill="black"/>
<path opacity="0.2" d="M27.25 10H56.125C56.8212 10 57.4889 10.2766 57.9812 10.7688C58.4734 11.2611 58.75 11.9288 58.75 12.625V13.2812C58.75 12.5851 58.4734 11.9174 57.9812 11.4251C57.4889 10.9328 56.8212 10.6562 56.125 10.6562H27.25C26.5538 10.6562 25.8861 10.9328 25.3938 11.4251C24.9016 11.9174 24.625 12.5851 24.625 13.2812V12.625C24.625 11.9288 24.9016 11.2611 25.3938 10.7688C25.8861 10.2766 26.5538 10 27.25 10V10Z" fill="white"/>
<path d="M43 10H50.875V57.25H43V10Z" fill="#303C42"/>
<path d="M39.7581 26.7081C38.9129 25.8603 37.8025 25.5426 36.5477 25.8051C33.214 26.4824 30.2425 31.2231 29.2739 33.625C28.0664 36.6175 25.6986 40.9855 23.7509 42.3741C23.386 41.9148 22.8768 40.1534 22.6379 39.61C22.4909 39.2766 22.3544 38.9643 22.1969 38.6808C22.5644 37.72 22.9319 36.4731 23.1288 35.7775L24.625 34.8351V23.7314C20.6298 24.4401 14.9387 25.708 13.1957 27.4458C11.1876 29.4565 9.37375 35.5176 7.38137 42.6445C6.964 44.1329 6.60175 45.4323 6.31038 46.3563C5.08713 50.2308 1.4935 55.0791 1.45412 55.129L1 55.7144L1.26512 56.4074C1.30975 56.5203 5.57275 67.75 18.0625 67.75H18.8185L19.1991 67.0964C21.6141 62.9305 24.3809 61.2505 27.0557 59.6283C29.0009 58.4496 30.841 57.334 32.248 55.3968C34.873 51.79 34.9623 49.8318 35.0515 47.9339C35.0699 47.5926 35.083 47.2409 35.1198 46.8734C35.3298 44.6631 36.8207 41.2218 38.8315 38.308C41.341 34.6671 42.9186 29.8686 39.7581 26.7055V26.7081Z" fill="#FFD573"/>
<path opacity="0.05" d="M43 10H46.9375V57.25H43V10Z" fill="white"/>
<path opacity="0.1" d="M38.8315 37.6518C36.8207 40.5655 35.3298 44.0069 35.1198 46.2171C35.083 46.5846 35.0673 46.9338 35.0515 47.2776C34.9623 49.1729 34.873 51.1338 32.248 54.7405C30.841 56.6778 29.0009 57.7934 27.0557 58.972C24.3782 60.5943 21.6141 62.2743 19.1991 66.4401L18.8185 67.0938H18.0625C5.57275 67.0938 1 55.7144 1 55.7144L1.26512 56.4074C1.30975 56.5203 5.57275 67.75 18.0625 67.75H18.8185L19.1991 67.0964C21.6141 62.9305 24.3809 61.2505 27.0557 59.6283C29.0009 58.4496 30.841 57.334 32.248 55.3968C34.873 51.79 34.9623 49.8318 35.0515 47.9339C35.0699 47.5926 35.083 47.2409 35.1198 46.8734C35.3298 44.6631 36.8207 41.2218 38.8315 38.308C40.4406 35.9718 41.6507 33.163 41.488 30.6115C41.4276 32.9819 40.3067 35.515 38.8315 37.6518V37.6518Z" fill="black"/>
<path d="M39.7581 26.7081C42.9186 29.8686 41.341 34.6671 38.8315 38.308C36.8208 41.2218 35.3298 44.6631 35.1198 46.8734C35.083 47.2409 35.0673 47.59 35.0515 47.9339C34.9623 49.8291 34.873 51.79 32.248 55.3968C31.723 56.1213 31.1193 56.7093 30.4893 57.25H56.125C56.8212 57.25 57.4889 56.9734 57.9812 56.4812C58.4734 55.9889 58.75 55.3212 58.75 54.625V45.7L39.7581 26.7081V26.7081Z" fill="url(#paint0_linear_723_5032)"/>
<path opacity="0.2" d="M24.625 23.7314C20.6298 24.4401 14.9387 25.708 13.1957 27.4458C11.1876 29.4565 9.37375 35.5176 7.38137 42.6445C6.964 44.1329 6.60175 45.4323 6.31038 46.3563C5.08713 50.2308 1.4935 55.0791 1.45412 55.129L1 55.7144L1.168 56.1528L1.45675 55.7853C1.4935 55.7354 5.08712 50.887 6.313 47.0125C6.60175 46.0885 6.964 44.7891 7.38137 43.3008C9.37637 36.1739 11.1876 30.1128 13.1957 28.102C14.9387 26.3643 20.6298 25.0964 24.625 24.3876V23.7314Z" fill="white"/>
<path d="M56.125 10H27.25C26.5538 10 25.8861 10.2766 25.3938 10.7688C24.9016 11.2611 24.625 11.9288 24.625 12.625V23.7314C20.6298 24.4401 14.9387 25.708 13.1957 27.4457C11.1876 29.4565 9.37375 35.5176 7.38137 42.6445C6.964 44.1329 6.60175 45.4323 6.31038 46.3563C5.08713 50.2308 1.4935 55.0791 1.45412 55.129L1 55.7144L1.26512 56.4074C1.30975 56.5203 5.57275 67.75 18.0625 67.75H18.8185L19.1991 67.0964C21.6141 62.9305 24.3809 61.2505 27.0557 59.6283C28.2737 58.8933 29.434 58.1556 30.4893 57.25H56.125C56.8212 57.25 57.4889 56.9734 57.9812 56.4812C58.4734 55.9889 58.75 55.3212 58.75 54.625V12.625C58.75 11.9288 58.4734 11.2611 57.9812 10.7688C57.4889 10.2766 56.8212 10 56.125 10ZM23.7509 42.3741C23.386 41.9148 22.8768 40.1534 22.6379 39.61C22.4909 39.2766 22.3544 38.9642 22.1969 38.6807C22.5644 37.72 22.9319 36.4731 23.1288 35.7775L24.625 34.8351V41.5761C24.3284 41.8911 24.0344 42.172 23.7509 42.3741V42.3741Z" fill="url(#paint1_linear_723_5032)"/>
<circle cx="62.375" cy="52.375" r="17" fill="white"/>
<path d="M62.375 37.375C54.0911 37.375 47.375 44.0908 47.375 52.375C47.375 60.6592 54.0911 67.375 62.375 67.375C70.6598 67.375 77.375 60.6592 77.375 52.375C77.375 44.0908 70.6595 37.375 62.375 37.375Z" fill="#F14F4A"/>
<path d="M62.375 37.375C54.0911 37.375 47.375 44.0908 47.375 52.375C47.375 60.6592 54.0911 67.375 62.375 67.375C70.6598 67.375 77.375 60.6592 77.375 52.375C77.375 44.0908 70.6595 37.375 62.375 37.375Z" stroke="white"/>
<path d="M56.5455 51.1H63.8182V52.9H56.5455V55.6L52 52L56.5455 48.4V51.1ZM55.6364 57.4H58.0982C59.1479 58.3165 60.4424 58.9137 61.8265 59.1198C63.2105 59.326 64.6252 59.1324 65.9009 58.5623C67.1766 57.9923 68.259 57.0699 69.0182 55.9058C69.7775 54.7418 70.1814 53.3856 70.1814 52C70.1814 50.6144 69.7775 49.2582 69.0182 48.0942C68.259 46.9301 67.1766 46.0077 65.9009 45.4376C64.6252 44.8676 63.2105 44.674 61.8265 44.8802C60.4424 45.0863 59.1479 45.6835 58.0982 46.6H55.6364C56.4824 45.4815 57.5803 44.5737 58.8428 43.9487C60.1053 43.3238 61.4976 42.999 62.9091 43C67.93 43 72 47.0293 72 52C72 56.9707 67.93 61 62.9091 61C61.4976 61.001 60.1053 60.6762 58.8428 60.0513C57.5803 59.4263 56.4824 58.5185 55.6364 57.4V57.4Z" fill="white"/>
<defs>
<linearGradient id="paint0_linear_723_5032" x1="31.072" y1="37.9274" x2="50.0718" y2="56.9271" gradientUnits="userSpaceOnUse">
<stop stop-color="#3E2723" stop-opacity="0.2"/>
<stop offset="1" stop-color="#3E2723" stop-opacity="0.02"/>
</linearGradient>
<linearGradient id="paint1_linear_723_5032" x1="12.403" y1="28.186" x2="60.8211" y2="50.7663" gradientUnits="userSpaceOnUse">
<stop stop-color="white" stop-opacity="0.2"/>
<stop offset="1" stop-color="white" stop-opacity="0"/>
</linearGradient>
</defs>
</svg>
