<svg width="80" height="80" viewBox="0 0 80 80" fill="none" xmlns="http://www.w3.org/2000/svg">
<path d="M49.2103 34.648L50.773 33.0876C51.879 31.9872 52.7558 30.6784 53.3527 29.2369C53.9495 27.7954 54.2545 26.2498 54.25 24.6896V16.75C54.25 16.1201 53.9998 15.516 53.5544 15.0706C53.109 14.6252 52.5049 14.375 51.875 14.375H28.125C27.4952 14.375 26.8911 14.6252 26.4457 15.0706C26.0003 15.516 25.75 16.1201 25.75 16.75V24.6896C25.7458 26.2503 26.0512 27.7964 26.6484 29.2383C27.2457 30.6802 28.1229 31.9893 29.2294 33.09L30.7898 34.6456C32.1293 35.9804 32.8798 37.7949 32.875 39.6854V42.0841C32.8715 43.6252 32.3718 45.1241 31.45 46.3591L28.125 50.7932C26.5885 52.8505 25.7557 55.3481 25.75 57.9159V64.25C25.75 64.8799 26.0003 65.484 26.4457 65.9294C26.8911 66.3748 27.4952 66.625 28.125 66.625H32.875C32.2452 66.625 31.6411 66.3748 31.1957 65.9294C30.7503 65.484 30.5 64.8799 30.5 64.25V57.9159C30.5 56.5669 30.7304 55.2274 31.1793 53.9567C31.3434 53.4935 31.6472 53.0927 32.0488 52.8094C32.4503 52.5261 32.9299 52.3743 33.4213 52.375H46.5835C47.0746 52.3748 47.5536 52.5268 47.9547 52.81C48.3557 53.0933 48.6592 53.4939 48.8232 53.9567C49.2744 55.2274 49.5024 56.5692 49.5024 57.9159V64.25C49.5024 64.8799 49.2522 65.484 48.8068 65.9294C48.3614 66.3748 47.7573 66.625 47.1274 66.625H51.8774C52.5073 66.625 53.1114 66.3748 53.5568 65.9294C54.0022 65.484 54.2524 64.8799 54.2524 64.25V57.9159C54.2471 55.3481 53.4143 52.8504 51.8774 50.7932L48.5524 46.3591C47.6303 45.1243 47.1307 43.6252 47.1274 42.0841V39.6854C47.125 38.75 47.3081 37.8233 47.666 36.9591C48.0239 36.0949 48.5496 35.3102 49.2127 34.6504L49.2103 34.648ZM46.023 33.0876L44.4603 34.648C43.7991 35.3087 43.2746 36.0932 42.9168 36.9568C42.559 37.8203 42.3749 38.7459 42.375 39.6806V40.5H37.625V39.6854C37.625 37.7925 36.8722 35.9756 35.5303 34.6385L33.9794 33.09C32.1438 31.2414 30.9743 28.8354 30.6544 26.25H49.3457C49.026 28.8348 47.8564 31.24 46.0207 33.0876H46.023Z" fill="#D8D8FF"/>
<path d="M42.3749 40.5V39.6806C42.3749 37.7925 43.1254 35.9828 44.4601 34.648L46.0229 33.0876C47.8586 31.24 49.0282 28.8348 49.3479 26.25H30.6519C30.9717 28.8354 32.1413 31.2414 33.9769 33.09L35.5301 34.6385C36.872 35.9756 37.6249 37.7925 37.6249 39.6854V40.5H42.3749Z" fill="#B2B1FF"/>
<path d="M56.625 19.125H23.375C22.7451 19.125 22.141 18.8748 21.6956 18.4294C21.2502 17.984 21 17.3799 21 16.75C21 16.1201 21.2502 15.516 21.6956 15.0706C22.141 14.6252 22.7451 14.375 23.375 14.375H56.625C57.2549 14.375 57.859 14.6252 58.3044 15.0706C58.7498 15.516 59 16.1201 59 16.75C59 17.3799 58.7498 17.984 58.3044 18.4294C57.859 18.8748 57.2549 19.125 56.625 19.125Z" fill="#6563FF"/>
<path d="M47.125 66.625H32.875C32.2451 66.625 31.641 66.3748 31.1956 65.9294C30.7502 65.484 30.5 64.8799 30.5 64.25V57.9159C30.5 56.5669 30.7304 55.2274 31.1793 53.9568C31.3434 53.4935 31.6472 53.0927 32.0487 52.8094C32.4503 52.5261 32.9298 52.3743 33.4212 52.375H46.5835C47.0745 52.3748 47.5535 52.5268 47.9546 52.81C48.3557 53.0933 48.6591 53.4939 48.8231 53.9568C49.2744 55.2274 49.5024 56.5693 49.5024 57.9159V64.25C49.5024 64.8799 49.2522 65.484 48.8068 65.9294C48.3614 66.3748 47.7573 66.625 47.1274 66.625H47.125Z" fill="#B2B1FF"/>
<path d="M56.625 66.625H23.375C22.7451 66.625 22.141 66.3748 21.6956 65.9294C21.2502 65.484 21 64.8799 21 64.25C21 63.6201 21.2502 63.016 21.6956 62.5706C22.141 62.1252 22.7451 61.875 23.375 61.875H56.625C57.2549 61.875 57.859 62.1252 58.3044 62.5706C58.7498 63.016 59 63.6201 59 64.25C59 64.8799 58.7498 65.484 58.3044 65.9294C57.859 66.3748 57.2549 66.625 56.625 66.625Z" fill="#6563FF"/>
</svg>
